<svg xmlns="http://www.w3.org/2000/svg" width="600" height="400" viewBox="0 0 600 400">
  <!-- 背景 -->
  <rect width="600" height="400" fill="#f9f9f9" />

  <!-- 标题 -->
  <text x="300" y="30" font-family="Arial, sans-serif" font-size="20" fill="#333" text-anchor="middle">
    Adversarial Attacks vs Model Inversion Attacks
  </text>

  <!-- 左侧：对抗样本攻击 -->
  <rect x="50" y="80" width="200" height="250" fill="#e8f5e9" stroke="#ff5722" stroke-width="2" />
  <text x="150" y="120" font-family="Arial, sans-serif" font-size="16" fill="#333" text-anchor="middle">
    Adversarial Attack
  </text>
  <!-- 模糊的人脸图标 -->
  <circle cx="150" cy="180" r="50" fill="#ccc" stroke="#aaa" stroke-width="4" />
  <line x1="130" y1="170" x2="170" y2="170" stroke="#bbb" stroke-width="2" />
  <circle cx="135" cy="160" r="3" fill="#bbb" />
  <circle cx="165" cy="160" r="3" fill="#bbb" />
  <text x="150" y="240" font-family="Arial, sans-serif" font-size="12" fill="#555" text-anchor="middle">
    Blurred Samples
  </text>

  <!-- 右侧：模型反演攻击 -->
  <rect x="350" y="80" width="200" height="250" fill="#e3f2fd" stroke="#2196f3" stroke-width="2" />
  <text x="450" y="120" font-family="Arial, sans-serif" font-size="16" fill="#333" text-anchor="middle">
    Model Inversion Attack
  </text>
  <!-- 清晰的人脸图标 -->
  <circle cx="450" cy="180" r="50" fill="#fff" stroke="#2196f3" stroke-width="4" />
  <line x1="430" y1="170" x2="470" y2="170" stroke="#2196f3" stroke-width="4" />
  <circle cx="435" cy="160" r="5" fill="#2196f3" />
  <circle cx="465" cy="160" r="5" fill="#2196f3" />
  <text x="450" y="240" font-family="Arial, sans-serif" font-size="12" fill="#555" text-anchor="middle">
    Restored Samples
  </text>

  <!-- 中间的箭头 -->
  <line x1="250" y1="200" x2="350" y2="200" stroke="#333" stroke-width="2" marker-end="url(#arrow)" />
  <text x="300" y="220" font-family="Arial, sans-serif" font-size="14" fill="#333" text-anchor="middle">
    Comparison
  </text>

  <!-- 定义箭头标记 -->
  <defs>
    <marker id="arrow" markerWidth="10" markerHeight="10" refX="9" refY="3" orient="auto" markerUnits="strokeWidth">
      <path d="M0,0 L0,6 L9,3 z" fill="#333" />
    </marker>
  </defs>
</svg>
